<svg xmlns="http://www.w3.org/2000/svg" width="180" height="182" viewBox="0 0 180 182">
  <path fill="#3D9B38" fill-rule="evenodd" d="M1328,110.001352 L1328,201 L1238.00135,201 C1238.00045,200.833439 1238,200.666772 1238,200.5 C1238,150.685003 1278.24829,110.270497 1328,110.001352 Z M1328,109.998648 C1278.24829,109.729503 1238,69.3149974 1238,19.5 C1238,19.3332276 1238.00045,19.1665605 1238.00135,19 L1328,19 L1328,109.998648 Z M1148,110.001352 C1197.75171,110.270497 1238,150.685003 1238,200.5 C1238,200.666772 1237.99955,200.833439 1237.99865,201 L1148,201 L1148,110.001352 Z M1148,109.998648 L1148,19 L1237.99865,19 C1237.99955,19.1665605 1238,19.3332276 1238,19.5 C1238,69.3149974 1197.75171,109.729503 1148,109.998648 Z" transform="translate(-1148 -19)"/>
</svg>
